# xmcd
#
# Track frame offsets:
#	150
#	12304
#	27116
#	47026
#	67086
#	86919
#	103346
#	119729
#	136159
#	152809
#	173996
#	198006
#	212046
#	225769
#
# Disc length: 3233 seconds
#
# Revision: 0
# Processed by: cddbd v1.5.2PL0 Copyright (c) Steve Scherf et al.
# Submitted via: EasyCDDAExtractor 10.0.2.1
#
DISCID=be0c9f0e
DTITLE=Chico's Jugband - RE:FUSED
DYEAR=2012
DGENRE=Jugband
TTITLE0=Baby, Please Don't Go
TTITLE1=Maxwell Street Blues
TTITLE2=Dallas Rag
TTITLE3=Prison Wall Blues
TTITLE4=4th Street Mess Around
TTITLE5=Spoonful
TTITLE6=Out With The Wrong Woman
TTITLE7=Brown Skin Blues
TTITLE8=One Letter Home
TTITLE9=Whiskey And Gin Blues
TTITLE10=Lowland Blues
TTITLE11=Stuff They Call Money
TTITLE12=Bring It With You When You Come
TTITLE13=Boodle-De-Bum
EXTD=
EXTT0=
EXTT1=
EXTT2=
EXTT3=
EXTT4=
EXTT5=
EXTT6=
EXTT7=
EXTT8=
EXTT9=
EXTT10=
EXTT11=
EXTT12=
EXTT13=
PLAYORDER=
